#!OML:ASF E:\Style4\Style4.ASF
:FULLY-SPECIFIED
:DEGREES
1577
root 0.0460048 17.6756 -2.77891 13.05 1.97986 3.22948
lowerback 20.5425 1.80494 -1.07428
upperback 6.8322 2.12144 -0.258881
thorax -4.09967 1.03975 -0.163988
lowerneck 0.882819 -5.99477 -4.85711
upperneck -5.29883 -7.88095 6.3747
head -1.35718 -3.98592 2.96588
rclavicle -4.6118e-014 5.96354e-015
rhumerus 77.5601 -12.936 -48.2418
rradius 37.2774
rwrist -0.294566
rhand 45.9277 -0.42652
rfingers 7.12502
rthumb 67.0868 -3.69454
lclavicle -4.6118e-014 5.96354e-015
lhumerus 77.3413 10.3947 42.5997
lradius 56.8936
lwrist 1.39309
lhand 29.2679 40.439
lfingers 7.12502
lthumb 53.0476 59.9012
rfemur -38.1883 -4.93835 16.3045
rtibia 38.4572
rfoot -11.3855 -16.6107
rtoes -12.2277
lfemur -36.4221 -1.57265 -21.0228
ltibia 33.7847
lfoot -10.1842 7.32124
ltoes -16.2248
1578
root 0.0563945 17.6498 -2.79713 13.0541 1.89653 3.24113
lowerback 20.6471 1.83871 -0.992837
upperback 6.87315 2.17541 -0.322094
thorax -4.10421 1.06681 -0.292596
lowerneck 0.926908 -6.01452 -4.65497
upperneck -5.39564 -7.9002 6.38918
head -1.40205 -4.00078 2.93968
rclavicle 3.97569e-015 3.97569e-015
rhumerus 76.7258 -12.3468 -48.0281
rradius 37.4508
rwrist -0.261901
rhand 46.0234 -0.528464
rfingers 7.12502
rthumb 67.1581 -3.64527
lclavicle 3.97569e-015 3.97569e-015
lhumerus 76.9079 9.59082 42.5788
lradius 57.2704
lwrist 1.48174
lhand 29.0806 40.3918
lfingers 7.12502
lthumb 52.8785 59.9608
rfemur -38.5854 -4.97535 16.2767
rtibia 38.9648
rfoot -11.4756 -16.5469
rtoes -12.3285
lfemur -36.8261 -1.44715 -21.1069
ltibia 34.3529
lfoot -10.3263 7.18007
ltoes -15.9462
1579
root 0.0669061 17.6234 -2.81537 13.0372 1.79897 3.26449
lowerback 20.7785 1.87361 -0.917906
upperback 6.9154 2.22834 -0.399896
thorax -4.12026 1.09343 -0.433797
lowerneck 0.929011 -6.04315 -4.39192
upperneck -5.48586 -7.93124 6.33461
head -1.44172 -4.02091 2.87776
rclavicle 2.34566e-014 -1.98785e-015
rhumerus 75.8588 -11.768 -47.805
rradius 37.6666
rwrist -0.486938
rhand 46.1497 -0.792692
rfingers 7.12502
rthumb 67.252 -3.70854
lclavicle 2.34566e-014 -1.98785e-015
lhumerus 76.5021 8.77331 42.586
lradius 57.5802
lwrist 1.46308
lhand 28.9903 40.2398
lfingers 7.12502
lthumb 52.7969 59.8599
rfemur -38.9641 -5.01344 16.236
rtibia 39.4434
rfoot -11.4708 -16.4738
rtoes -12.8827
lfemur -37.1877 -1.34586 -21.1965
ltibia 34.8867
lfoot -10.4828 7.10806
ltoes -15.997
1580
root 0.077682 17.6012 -2.8283 12.9526 1.67504 3.29783
lowerback 20.8754 1.83477 -0.976329
upperback 6.99862 2.16545 -0.394592
thorax -4.08239 1.06203 -0.381314
lowerneck 0.846574 -5.95229 -4.46087
upperneck -5.46754 -7.80996 6.31816
head -1.4264 -3.95738 2.88049
rclavicle 2.78299e-015 8.74653e-015
rhumerus 75.3158 -10.9338 -47.8643
rradius 37.8425
rwrist -0.340244
rhand 46.2046 -0.864637
rfingers 7.12502
rthumb 67.2928 -3.69243
lclavicle 2.78299e-015 8.74653e-015
lhumerus 75.887 8.15926 42.755
lradius 57.8378
lwrist 1.31065
lhand 29.1082 40.0843
lfingers 7.12502
lthumb 52.9034 59.6376
rfemur -39.2328 -5.02247 16.1681
rtibia 39.8835
rfoot -11.4435 -16.4646
rtoes -13.4793
lfemur -37.4245 -1.20255 -21.319
ltibia 35.3919
lfoot -10.6031 7.07935
ltoes -16.464
1581
root 0.0895384 17.581 -2.83774 12.8805 1.56352 3.31915
lowerback 20.8891 1.74125 -1.08274
upperback 7.07016 2.02654 -0.343548
thorax -4.01743 0.992756 -0.232372
lowerneck 0.882636 -5.81977 -4.79399
upperneck -5.45014 -7.63669 6.46117
head -1.41995 -3.86736 2.98903
rclavicle -1.27222e-014 6.75868e-015
rhumerus 74.8433 -9.92752 -47.9441
rradius 38.0437
rwrist -0.102006
rhand 46.2114 -0.727317
rfingers 7.12502
rthumb 67.2978 -3.54424
lclavicle -1.27222e-014 6.75868e-015
lhumerus 75.0792 7.61231 43.0081
lradius 58.1299
lwrist 1.03448
lhand 29.1353 40.028
lfingers 7.12502
lthumb 52.9278 59.5659
rfemur -39.4566 -5.04402 16.1167
rtibia 40.2859
rfoot -11.3549 -16.445
rtoes -14.8036
lfemur -37.6309 -1.09414 -21.4214
ltibia 35.8655
lfoot -10.7798 7.10133
ltoes -17.0399
1582
root 0.100046 17.5606 -2.84863 12.847 1.48946 3.38947
lowerback 20.9263 1.66253 -1.19669
upperback 7.07838 1.90251 -0.328487
thorax -4.03084 0.931137 -0.122964
lowerneck 1.09849 -5.72591 -4.99759
upperneck -5.53878 -7.51715 6.56203
head -1.48338 -3.80867 3.072
rclavicle -1.63003e-014 1.43125e-014
rhumerus 74.2176 -8.96165 -47.8288
rradius 38.26
rwrist -0.0995206
rhand 46.1074 -0.617523
rfingers 7.12502
rthumb 67.2206 -3.60086
lclavicle -1.63003e-014 1.43125e-014
lhumerus 74.0871 7.06266 43.0114
lradius 58.6793
lwrist 0.975664
lhand 29.2694 39.968
lfingers 7.12502
lthumb 53.0489 59.4293
rfemur -39.7069 -5.10816 16.0264
rtibia 40.6708
rfoot -11.1512 -16.3909
rtoes -16.8975
lfemur -37.88 -1.02369 -21.5605
ltibia 36.3103
lfoot -10.9692 7.13804
ltoes -17.7032
1583
root 0.107676 17.5431 -2.85596 12.7862 1.40306 3.38401
lowerback 20.9935 1.63524 -1.20409
upperback 7.06622 1.86342 -0.33962
thorax -4.07782 0.911938 -0.123306
lowerneck 1.20454 -5.6743 -4.99434
upperneck -5.51084 -7.4532 6.54274
head -1.49807 -3.77748 3.06878
rclavicle -2.38542e-015 1.35174e-014
rhumerus 73.4487 -8.11237 -47.7561
rradius 38.4944
rwrist -0.0743089
rhand 46.1338 -0.461278
rfingers 7.12502
rthumb 67.2402 -3.40251
lclavicle -2.38542e-015 1.35174e-014
lhumerus 73.2 6.35648 42.8989
lradius 59.2249
lwrist 1.12002
lhand 29.2904 40.0011
lfingers 7.12502
lthumb 53.0679 59.4504
rfemur -39.892 -5.10615 16.0089
rtibia 41.0358
rfoot -11.0964 -16.3522
rtoes -17.8732
lfemur -38.085 -0.872718 -21.6309
ltibia 36.7298
lfoot -11.0829 7.07767
ltoes -17.9256
1584
root 0.115311 17.5271 -2.86076 12.6886 1.26453 3.3894
lowerback 20.9198 1.65939 -1.22253
upperback 7.18435 1.89252 -0.344248
thorax -3.91349 0.925511 -0.12059
lowerneck 1.19887 -5.64258 -4.95328
upperneck -5.51639 -7.41151 6.48616
head -1.50497 -3.75618 3.04239
rclavicle 2.94201e-014 -1.47101e-014
rhumerus 72.7668 -7.42831 -47.6793
rradius 38.7064
rwrist -0.10023
rhand 46.2137 -0.361825
rfingers 7.12502
rthumb 67.2995 -3.17509
lclavicle 2.94201e-014 -1.47101e-014
lhumerus 72.7494 5.71292 42.9032
lradius 59.5149
lwrist 1.20716
lhand 29.3948 40.1042
lfingers 7.12502
lthumb 53.162 59.4934
rfemur -40.0241 -5.01768 15.9537
rtibia 41.3844
rfoot -11.2481 -16.3157
rtoes -17.7883
lfemur -38.2134 -0.723945 -21.7027
ltibia 37.11
lfoot -11.1782 6.98757
ltoes -17.3069
1585
root 0.124358 17.5104 -2.86338 12.5862 1.20068 3.37256
lowerback 20.543 1.66304 -1.24204
upperback 7.50286 1.90724 -0.269132
thorax -3.3817 0.930532 -0.017084
lowerneck 1.13095 -5.63174 -4.99901
upperneck -5.67611 -7.39461 6.42171
head -1.5465 -3.7453 3.0313
rclavicle 1.07344e-014 -5.96354e-015
rhumerus 72.3214 -6.88996 -47.6514
rradius 38.9369
rwrist -0.0739656
rhand 46.4778 -0.330935
rfingers 7.12502
rthumb 67.4945 -2.7164
lclavicle 1.07344e-014 -5.96354e-015
lhumerus 72.4374 5.33885 42.9892
lradius 59.841
lwrist 1.21727
lhand 29.459 40.2026
lfingers 7.12502
lthumb 53.2199 59.5547
rfemur -40.1121 -5.00925 15.9394
rtibia 41.6941
rfoot -11.294 -16.2755
rtoes -18.0499
lfemur -38.3129 -0.633903 -21.7436
ltibia 37.4529
lfoot -11.2525 6.98011
ltoes -17.4839
1586
root 0.133772 17.498 -2.86486 12.4831 1.16558 3.37942
lowerback 20.5138 1.6155 -1.17394
upperback 7.58491 1.85809 -0.306449
thorax -3.27486 0.907356 -0.0819008
lowerneck 1.04671 -5.60856 -4.93707
upperneck -5.56167 -7.36438 6.36364
head -1.5005 -3.72874 2.99339
rclavicle 1.35174e-014 3.97569e-015
rhumerus 71.6366 -6.16149 -47.7543
rradius 39.1573
rwrist -0.179845
rhand 46.7954 -0.24206
rfingers 7.12502
rthumb 67.7272 -2.103
lclavicle 1.35174e-014 3.97569e-015
lhumerus 71.8518 4.61323 43.0637
lradius 60.2309
lwrist 1.16851
lhand 29.3626 40.2902
lfingers 7.12502
lthumb 53.133 59.698
rfemur -40.1604 -5.02232 15.8992
rtibia 41.9619
rfoot -11.3512 -16.2541
rtoes -18.4415
lfemur -38.3714 -0.575477 -21.8017
ltibia 37.7548
lfoot -11.3592 6.93468
ltoes -17.7388
1587
root 0.144549 17.489 -2.86433 12.3902 1.09842 3.38352
lowerback 20.4423 1.58989 -1.15305
upperback 7.66616 1.83026 -0.315462
thorax -3.14994 0.893707 -0.093712
lowerneck 0.953586 -5.58753 -4.94449
upperneck -5.40238 -7.33783 6.35475
head -1.43412 -3.71338 2.98274
rclavicle 1.70955e-014 -5.1684e-015
rhumerus 70.8659 -5.39663 -47.5452
rradius 39.511
rwrist -0.823481
rhand 46.7084 -0.508552
rfingers 7.12502
rthumb 67.6637 -2.51429
lclavicle 1.70955e-014 -5.1684e-015
lhumerus 71.2133 3.83674 43.321
lradius 60.6008
lwrist 1.08291
lhand 29.3853 40.3007
lfingers 7.12502
lthumb 53.1535 59.6954
rfemur -40.1944 -5.02475 15.8539
rtibia 42.1927
rfoot -11.4159 -16.22
rtoes -18.5195
lfemur -38.4067 -0.499342 -21.8675
ltibia 38.0357
lfoot -11.5644 6.91267
ltoes -17.7503
1588
root 0.155274 17.481 -2.86326 12.3169 0.998006 3.39521
lowerback 20.374 1.59282 -1.15332
upperback 7.70908 1.8352 -0.31439
thorax -3.06904 0.895797 -0.0910069
lowerneck 0.909462 -5.59294 -4.93413
upperneck -5.23702 -7.35058 6.28858
head -1.37486 -3.71747 2.9517
rclavicle 1.98785e-015 -6.36111e-015
rhumerus 70.0179 -4.64927 -47.1898
rradius 39.9495
rwrist -1.43718
rhand 46.6947 -0.626995
rfingers 7.12502
rthumb 67.6536 -2.6555
lclavicle 1.98785e-015 -6.36111e-015
lhumerus 70.4946 3.1115 43.4491
lradius 61.0209
lwrist 1.07111
lhand 29.3728 40.0926
lfingers 7.12502
lthumb 53.1422 59.4945
rfemur -40.2361 -5.01434 15.8021
rtibia 42.3897
rfoot -11.445 -16.1859
rtoes -18.652
lfemur -38.4485 -0.443115 -21.9308
ltibia 38.3065
lfoot -11.7713 6.94503
ltoes -17.7505
1589
root 0.164561 17.4705 -2.86208 12.2105 0.927515 3.30506
lowerback 20.3276 1.55475 -1.09365
upperback 7.75534 1.79985 -0.275146
thorax -2.99506 0.878337 -0.0732126
lowerneck 0.963409 -5.56918 -4.87265
upperneck -5.21513 -7.32476 6.16287
head -1.38556 -3.70375 2.90038
rclavicle 3.18055e-015 3.97569e-015
rhumerus 69.3419 -3.85899 -47.2211
rradius 40.3148
rwrist -1.49724
rhand 47.0615 -0.386421
rfingers 7.12502
rthumb 67.9207 -1.79913
lclavicle 3.18055e-015 3.97569e-015
lhumerus 69.6367 2.54396 43.1906
lradius 61.6271
lwrist 1.36345
lhand 29.0845 40.2315
lfingers 7.12502
lthumb 52.882 59.7983
rfemur -40.2363 -4.98447 15.8675
rtibia 42.5735
rfoot -11.4958 -16.1655
rtoes -18.5675
lfemur -38.4666 -0.36948 -21.8799
ltibia 38.5668
lfoot -11.8712 6.94296
ltoes -17.9457
